<?xml version="1.0" encoding="utf-8"?>
<!-- Generator: Adobe Illustrator 27.9.5, SVG Export Plug-In . SVG Version: 9.03 Build 54986)  -->
<svg version="1.1" id="Layer_1" xmlns="http://www.w3.org/2000/svg" xmlns:xlink="http://www.w3.org/1999/xlink" x="0px" y="0px"
	 viewBox="0 0 1024 629" style="enable-background:new 0 0 1024 629;" xml:space="preserve">
<style type="text/css">
	.st0{fill-rule:evenodd;clip-rule:evenodd;fill:#618197;}
	.st1{fill-rule:evenodd;clip-rule:evenodd;fill:#B0BD45;}
	.st2{fill-rule:evenodd;clip-rule:evenodd;fill:#00B1DE;}
	.st3{fill-rule:evenodd;clip-rule:evenodd;fill:#F6B821;}
	.st4{fill-rule:evenodd;clip-rule:evenodd;fill:#E33561;}
	.st5{fill-rule:evenodd;clip-rule:evenodd;fill:#557486;}
	.st6{fill-rule:evenodd;clip-rule:evenodd;fill:#557388;}
	.st7{fill:#557388;}
	.st8{fill:#00B1DE;}
</style>
<g>
	<path class="st0" d="M151.73,168.24h8.48c0.22,0,0.54,0.11,0.76,0.11c4.35,0.43,8.81,0.65,13.05,1.41
		c31.21,5.65,55.57,21.75,72.97,48.28c10,15.22,15.44,32.08,16.75,50.24c0.11,1.09,0.22,2.17,0.33,3.37v8.92
		c0,0.22-0.11,0.43-0.11,0.65c-0.22,5.44-0.98,10.87-1.85,16.2c-2.07,11.85-5.33,23.38-9.68,34.69
		c-6.09,15.55-13.92,30.34-22.84,44.37c-0.11,0.22-0.22,0.33-0.43,0.65c-0.54-0.87-0.98-1.63-1.41-2.39
		c-1.74-3.15-4.46-4.89-7.83-5.65c-0.54-0.11-0.76-0.33-0.98-0.76c-5-8.59-10-17.29-15.01-25.88c-0.11-0.22-0.22-0.43-0.33-0.65
		c17.51-13.38,28.6-30.67,32.08-52.41c3.48-21.75-1.2-41.87-13.92-59.81c-23.6-33.38-68.4-43.61-104.39-24.14
		c-35.67,19.36-51.54,62.64-36.65,100.48c7.5,18.92,20.23,33.28,38.39,42.52c23.71,11.96,47.74,11.85,71.88,1.09
		c0,0.11,0.11,0.11,0.11,0.22c5.11,8.7,10.22,17.51,15.22,26.21c0.11,0.22,0.11,0.65,0.11,0.98c-0.22,1.09-0.43,2.17-0.54,3.15
		c-0.22,2.83,0.76,5.44,2.17,7.94c6.31,10.87,12.72,21.75,19.03,32.62c0.11,0.22,0.22,0.43,0.33,0.65c-0.11,0-0.11,0.11-0.11,0.11
		c-6.09-5.33-12.07-10.66-18.16-16.09c-0.11,0.22-0.33,0.33-0.43,0.43c-5.65,6.74-11.31,13.48-17.18,20.12
		c-10.22,11.42-21.1,22.18-32.51,32.3c-0.98,0.87-1.96,1.74-2.94,2.61h-0.11c-0.22-0.22-0.33-0.43-0.54-0.54
		c-1.09-0.98-2.28-1.96-3.37-2.94c-18.81-16.75-35.89-35.02-51.33-54.92c-11.53-14.68-21.75-30.23-30.45-46.76
		c-9.13-17.4-16.2-35.56-19.79-55.02c-0.98-5.22-1.74-10.55-2.07-15.88c-0.11-1.2-0.22-2.39-0.33-3.59v-9.68
		c0.11-0.98,0.22-1.96,0.33-2.94c0.54-7.5,1.85-14.9,4.02-22.18c12.61-43.61,51-74.49,96.24-77.75
		C149.45,168.46,150.64,168.35,151.73,168.24"/>
	<path class="st0" d="M151.73,168.24h8.48c0.22,0,0.54,0.11,0.76,0.11c4.35,0.43,8.81,0.65,13.05,1.41
		c31.21,5.65,55.57,21.75,72.97,48.28c10,15.22,15.44,32.08,16.75,50.24c0.11,1.09,0.22,2.17,0.33,3.37v8.92
		c0,0.22-0.11,0.43-0.11,0.65c-0.22,5.44-0.98,10.87-1.85,16.2c-2.07,11.85-5.33,23.38-9.68,34.69
		c-6.09,15.55-13.92,30.34-22.84,44.37c-0.11,0.22-0.22,0.33-0.43,0.65c-0.54-0.87-0.98-1.63-1.41-2.39
		c-1.74-3.15-4.46-4.89-7.83-5.65c-0.54-0.11-0.76-0.33-0.98-0.76c-5-8.59-10-17.29-15.01-25.88c-0.11-0.22-0.22-0.43-0.33-0.65
		c17.51-13.38,28.6-30.67,32.08-52.41c3.48-21.75-1.2-41.87-13.92-59.81c-23.6-33.38-68.4-43.61-104.39-24.14
		c-35.67,19.36-51.54,62.64-36.65,100.48c7.5,18.92,20.23,33.28,38.39,42.52c23.71,11.96,47.74,11.85,71.88,1.09
		c0,0.11,0.11,0.11,0.11,0.22c5.11,8.7,10.22,17.51,15.22,26.21c0.11,0.22,0.11,0.65,0.11,0.98c-0.22,1.09-0.43,2.17-0.54,3.15
		c-0.22,2.83,0.76,5.44,2.17,7.94c6.31,10.87,12.72,21.75,19.03,32.62c0.11,0.22,0.22,0.43,0.33,0.65c-0.11,0-0.11,0.11-0.11,0.11
		c-6.09-5.33-12.07-10.66-18.16-16.09c-0.11,0.22-0.33,0.33-0.43,0.43c-5.65,6.74-11.31,13.48-17.18,20.12
		c-10.22,11.42-21.1,22.18-32.51,32.3c-0.98,0.87-1.96,1.74-2.94,2.61h-0.11c-0.22-0.22-0.33-0.43-0.54-0.54
		c-1.09-0.98-2.28-1.96-3.37-2.94c-18.81-16.75-35.89-35.02-51.33-54.92c-11.53-14.68-21.75-30.23-30.45-46.76
		c-9.13-17.4-16.2-35.56-19.79-55.02c-0.98-5.22-1.74-10.55-2.07-15.88c-0.11-1.2-0.22-2.39-0.33-3.59v-9.68
		c0.11-0.98,0.22-1.96,0.33-2.94c0.54-7.5,1.85-14.9,4.02-22.18c12.61-43.61,51-74.49,96.24-77.75
		C149.45,168.46,150.64,168.35,151.73,168.24"/>
	<path class="st1" d="M124.98,270.78c7.07-12.07,14.03-24.14,21.1-36.32c0.33,0.11,0.54,0.33,0.76,0.43
		c25.34,14.68,50.67,29.25,76.01,43.82c0.65,0.33,0.76,0.76,0.76,1.52c-0.98,13.81-5.55,26.32-13.92,37.41
		c-1.09,1.41-1.09,1.41-2.61,0.54c-9.46-5.44-18.92-10.87-28.38-16.31c-0.54-0.33-0.76-0.54-0.65-1.3
		c2.17-11.96-7.07-22.62-19.14-22.08c-4.24,0.22-8.05,1.74-11.31,4.57c-0.33,0.22-0.54,0.43-0.98,0.22
		c-7.07-4.13-14.25-8.26-21.31-12.29C125.2,271,125.09,270.89,124.98,270.78"/>
	<path class="st1" d="M124.98,270.78c7.07-12.07,14.03-24.14,21.1-36.32c0.33,0.11,0.54,0.33,0.76,0.43
		c25.34,14.68,50.67,29.25,76.01,43.82c0.65,0.33,0.76,0.76,0.76,1.52c-0.98,13.81-5.55,26.32-13.92,37.41
		c-1.09,1.41-1.09,1.41-2.61,0.54c-9.46-5.44-18.92-10.87-28.38-16.31c-0.54-0.33-0.76-0.54-0.65-1.3
		c2.17-11.96-7.07-22.62-19.14-22.08c-4.24,0.22-8.05,1.74-11.31,4.57c-0.33,0.22-0.54,0.43-0.98,0.22
		c-7.07-4.13-14.25-8.26-21.31-12.29C125.2,271,125.09,270.89,124.98,270.78"/>
	<path class="st2" d="M201.97,326.35c-2.07,1.63-3.91,3.26-5.87,4.68c-10.44,7.72-22.18,12.07-35.12,13.16
		c-22.95,1.96-46.76-8.48-60.9-28.71c-0.43-0.65-0.43-1.09-0.11-1.74c6.63-11.31,13.16-22.62,19.68-33.82
		c0.11-0.22,0.33-0.43,0.43-0.76c7.29,4.24,14.57,8.37,21.86,12.61c-0.22,1.09-0.43,2.28-0.54,3.37
		c-0.87,7.83,3.26,15.33,10.33,18.81c7.07,3.37,15.44,2.07,21.1-3.48c0.33-0.33,0.65-0.54,1.2-0.22
		c9.13,5.33,18.16,10.55,27.29,15.77C201.54,326.03,201.64,326.14,201.97,326.35"/>
	<path class="st2" d="M201.97,326.35c-2.07,1.63-3.91,3.26-5.87,4.68c-10.44,7.72-22.18,12.07-35.12,13.16
		c-22.95,1.96-46.76-8.48-60.9-28.71c-0.43-0.65-0.43-1.09-0.11-1.74c6.63-11.31,13.16-22.62,19.68-33.82
		c0.11-0.22,0.33-0.43,0.43-0.76c7.29,4.24,14.57,8.37,21.86,12.61c-0.22,1.09-0.43,2.28-0.54,3.37
		c-0.87,7.83,3.26,15.33,10.33,18.81c7.07,3.37,15.44,2.07,21.1-3.48c0.33-0.33,0.65-0.54,1.2-0.22
		c9.13,5.33,18.16,10.55,27.29,15.77C201.54,326.03,201.64,326.14,201.97,326.35"/>
	<path class="st3" d="M223.28,268.07c-24.25-14.03-48.28-27.84-72.31-41.76c0.98-1.74,2.07-3.48,3.04-5.22
		c2.28-3.91,4.57-7.83,6.74-11.64c0.33-0.54,0.65-0.65,1.2-0.65c29.25,2.72,53.5,23.92,60.03,52.52
		C222.41,263.5,222.85,265.67,223.28,268.07"/>
	<path class="st3" d="M223.28,268.07c-24.25-14.03-48.28-27.84-72.31-41.76c0.98-1.74,2.07-3.48,3.04-5.22
		c2.28-3.91,4.57-7.83,6.74-11.64c0.33-0.54,0.65-0.65,1.2-0.65c29.25,2.72,53.5,23.92,60.03,52.52
		C222.41,263.5,222.85,265.67,223.28,268.07"/>
	<path class="st2" d="M92.14,251.86c1.41-2.83,2.61-5.65,4.13-8.26c5.44-9.9,12.94-17.94,22.4-24.14c0.33-0.22,0.65-0.43,1.2-0.11
		c5.76,3.37,11.64,6.74,17.51,10.11c0.11,0.11,0.22,0.22,0.43,0.33c-7.07,12.07-14.03,24.14-21.1,36.32
		C108.56,261.32,100.51,256.76,92.14,251.86"/>
	<path class="st2" d="M92.14,251.86c1.41-2.83,2.61-5.65,4.13-8.26c5.44-9.9,12.94-17.94,22.4-24.14c0.33-0.22,0.65-0.43,1.2-0.11
		c5.76,3.37,11.64,6.74,17.51,10.11c0.11,0.11,0.22,0.22,0.43,0.33c-7.07,12.07-14.03,24.14-21.1,36.32
		C108.56,261.32,100.51,256.76,92.14,251.86"/>
	<path class="st3" d="M89.42,261.32c7.5,4.35,14.9,8.59,22.4,12.94c-5.98,10.22-11.85,20.34-17.73,30.56
		c-1.96-2.61-5.22-14.57-5.98-21.31C87.25,276.11,87.9,268.83,89.42,261.32"/>
	<path class="st3" d="M89.42,261.32c7.5,4.35,14.9,8.59,22.4,12.94c-5.98,10.22-11.85,20.34-17.73,30.56
		c-1.96-2.61-5.22-14.57-5.98-21.31C87.25,276.11,87.9,268.83,89.42,261.32"/>
	<path class="st4" d="M169.56,297.21c0,5.33-4.35,9.68-9.68,9.68s-9.68-4.35-9.68-9.68s4.35-9.68,9.68-9.68
		C165.21,287.53,169.56,291.88,169.56,297.21"/>
	<path class="st4" d="M169.56,297.21c0,5.33-4.35,9.68-9.68,9.68s-9.68-4.35-9.68-9.68s4.35-9.68,9.68-9.68
		C165.21,287.53,169.56,291.88,169.56,297.21"/>
	<path class="st1" d="M149.99,208.8c-2.5,4.24-4.89,8.37-7.39,12.61c-4.35-2.5-8.7-5-13.16-7.61
		C132.05,212.06,145.75,208.58,149.99,208.8"/>
	<path class="st1" d="M149.99,208.8c-2.5,4.24-4.89,8.37-7.39,12.61c-4.35-2.5-8.7-5-13.16-7.61
		C132.05,212.06,145.75,208.58,149.99,208.8"/>
	<path class="st5" d="M264.06,280.68c-0.11,1.09-0.22,2.17-0.33,3.37c-0.87,11.53-3.26,22.95-6.52,34.04
		c-5.22,17.4-12.94,33.71-22.08,49.37c-1.85,3.15-3.81,6.31-5.76,9.46c-0.11,0.11-0.11,0.11-0.22,0.33
		c-0.33-0.54-0.65-0.98-0.87-1.52c-1.85-3.59-4.68-5.87-8.7-6.63c-0.22,0-0.54-0.43-0.65-0.65c-3.91-6.74-7.83-13.48-11.74-20.23
		c-1.2-2.07-2.39-4.13-3.7-6.31c17.94-13.7,29.03-31.54,32.3-53.94c2.28-15.66,0.11-30.77-6.52-45.13
		c-13.16-28.71-41.76-47.09-73.29-47.19v-27.29h4.24c0.22,0,0.54,0.11,0.76,0.11c4.35,0.43,8.81,0.65,13.05,1.41
		c31.21,5.65,55.57,21.75,72.97,48.28c10,15.22,15.44,32.08,16.75,50.24c0.11,1.09,0.22,2.17,0.33,3.37V280.68z"/>
	<path class="st5" d="M264.06,280.68c-0.11,1.09-0.22,2.17-0.33,3.37c-0.87,11.53-3.26,22.95-6.52,34.04
		c-5.22,17.4-12.94,33.71-22.08,49.37c-1.85,3.15-3.81,6.31-5.76,9.46c-0.11,0.11-0.11,0.11-0.22,0.33
		c-0.33-0.54-0.65-0.98-0.87-1.52c-1.85-3.59-4.68-5.87-8.7-6.63c-0.22,0-0.54-0.43-0.65-0.65c-3.91-6.74-7.83-13.48-11.74-20.23
		c-1.2-2.07-2.39-4.13-3.7-6.31c17.94-13.7,29.03-31.54,32.3-53.94c2.28-15.66,0.11-30.77-6.52-45.13
		c-13.16-28.71-41.76-47.09-73.29-47.19v-27.29h4.24c0.22,0,0.54,0.11,0.76,0.11c4.35,0.43,8.81,0.65,13.05,1.41
		c31.21,5.65,55.57,21.75,72.97,48.28c10,15.22,15.44,32.08,16.75,50.24c0.11,1.09,0.22,2.17,0.33,3.37V280.68z"/>
	<path class="st6" d="M155.97,357.35c12.18-0.11,23.71-2.72,34.8-7.94c1.3,2.17,2.61,4.35,3.81,6.52
		c3.81,6.52,7.61,13.16,11.53,19.68c0.22,0.43,0.33,0.76,0.11,1.3c-0.98,3.15-0.87,6.2,0.65,9.13c2.28,4.13,4.68,8.16,6.96,12.18
		c4.35,7.39,8.7,14.9,12.94,22.29c0.11,0.22,0.22,0.43,0.22,0.87c-5.98-5.33-12.07-10.66-18.16-16.09
		c-0.33,0.33-0.65,0.76-0.87,1.09c-14.03,17.51-29.25,33.71-45.89,48.72c-2.07,1.85-4.13,3.59-6.2,5.44v-103.2H155.97z"/>
	<path class="st6" d="M155.97,357.35c12.18-0.11,23.71-2.72,34.8-7.94c1.3,2.17,2.61,4.35,3.81,6.52
		c3.81,6.52,7.61,13.16,11.53,19.68c0.22,0.43,0.33,0.76,0.11,1.3c-0.98,3.15-0.87,6.2,0.65,9.13c2.28,4.13,4.68,8.16,6.96,12.18
		c4.35,7.39,8.7,14.9,12.94,22.29c0.11,0.22,0.22,0.43,0.22,0.87c-5.98-5.33-12.07-10.66-18.16-16.09
		c-0.33,0.33-0.65,0.76-0.87,1.09c-14.03,17.51-29.25,33.71-45.89,48.72c-2.07,1.85-4.13,3.59-6.2,5.44v-103.2H155.97z"/>
	<path class="st7" d="M384.55,272.2c5.98,0,10.87-2.39,14.68-7.07l7.83,8.05c-6.2,6.96-13.48,10.44-21.86,10.44
		c-8.37,0-15.33-2.61-20.77-7.94s-8.16-11.96-8.16-20.01c0-8.05,2.72-14.79,8.26-20.23s12.29-8.05,20.34-8.05
		c8.92,0,16.42,3.37,22.4,10.22l-7.5,8.59c-3.81-4.78-8.59-7.18-14.35-7.18c-4.57,0-8.48,1.52-11.74,4.46
		c-3.26,2.94-4.89,7.07-4.89,12.07c0,5.11,1.52,9.13,4.57,12.18C376.4,270.68,380.2,272.2,384.55,272.2"/>
	<path class="st7" d="M512.65,282.96l-5.11-11.74h-22.84l-5.11,11.74h-12.94l23.49-54.48h11.74l23.49,54.48H512.65z M496.23,244.69
		l-6.85,15.88h13.59L496.23,244.69z"/>
	<path class="st7" d="M602.48,268.83c2.07,2.5,4.78,3.81,8.16,3.81c3.48,0,6.09-1.3,8.16-3.81c1.96-2.5,3.04-5.98,3.04-10.33v-30.01
		h12.18v30.45c0,7.94-2.17,13.92-6.52,18.16c-4.35,4.24-10,6.31-16.75,6.31c-6.85,0-12.4-2.17-16.75-6.42s-6.63-10.33-6.63-18.16
		v-30.45h12.18v30.12C599.43,262.85,600.52,266.33,602.48,268.83"/>
	<path class="st7" d="M739.6,255.13h12.18v19.36c-5.44,5.98-12.83,9.03-22.4,9.03c-8.05,0-14.68-2.61-20.12-7.94
		c-5.44-5.33-8.16-11.96-8.16-20.12c0-8.16,2.72-14.79,8.26-20.23c5.55-5.44,12.18-8.16,20.01-8.16c7.83,0,14.57,2.61,20.44,7.72
		l-6.31,9.13c-2.39-2.17-4.68-3.59-6.74-4.35c-2.07-0.76-4.24-1.2-6.63-1.2c-4.68,0-8.48,1.63-11.74,4.68
		c-3.15,3.15-4.78,7.29-4.78,12.4s1.52,9.24,4.57,12.4c3.04,3.04,6.63,4.68,10.87,4.68c4.24,0,7.72-0.76,10.55-2.39
		C739.6,270.13,739.6,255.13,739.6,255.13z"/>
	<polygon class="st7" points="854.22,228.48 866.4,228.48 866.4,282.96 854.22,282.96 854.22,261.43 832.58,261.43 832.58,282.96 
		820.4,282.96 820.4,228.48 832.58,228.48 832.58,251.21 854.22,251.21 	"/>
	<polygon class="st7" points="960.46,238.92 960.46,282.96 948.39,282.96 948.39,238.92 932.95,238.92 932.95,228.48 975.9,228.48 
		975.9,238.92 	"/>
	<polygon class="st8" points="358.45,345.82 404.78,345.82 404.78,356.15 387.05,356.15 387.05,400.08 376.29,400.08 376.29,356.15 
		358.45,356.15 	"/>
	<rect x="459.69" y="345.82" class="st8" width="10.77" height="54.26"/>
	<path class="st8" d="M579.2,390.62c-5.65,5.76-14.25,11.09-25.01,11.09c-16.31,0-27.08-12.83-27.08-28.82
		c0-15.66,10.87-28.82,26.75-28.82c9.03,0,17.94,3.91,23.81,9.46l-6.74,7.83c-4.57-4.35-10.87-6.96-16.09-6.96
		c-10,0-16.31,8.37-16.31,18.6c0,10.22,6.52,18.49,16.75,18.49c6.74,0,12.94-3.91,17.29-8.59L579.2,390.62z"/>
	<polygon class="st8" points="644.99,369.42 667.5,345.82 681.1,345.82 660.54,367.02 684.79,400.08 671.09,400.08 652.93,374.85 
		644.99,383.01 644.99,400.08 634.12,400.08 634.12,345.82 644.99,345.82 	"/>
	<polygon class="st8" points="766.46,376.92 748.3,376.92 748.3,389.86 780.27,389.86 780.27,400.08 737.54,400.08 737.54,345.82 
		778.53,345.82 778.53,356.15 748.3,356.15 748.3,366.7 766.46,366.7 	"/>
	<polygon class="st8" points="830.51,345.82 876.84,345.82 876.84,356.15 859.11,356.15 859.11,400.08 848.35,400.08 848.35,356.15 
		830.51,356.15 	"/>
	<path class="st8" d="M966.55,359.74c-2.94-2.39-9.13-5.76-17.29-5.76c-4.89,0-9.24,1.96-9.24,6.63c0,4.78,6.52,5.11,12.94,5.76
		c8.92,0.65,22.95,1.85,22.95,16.75c0,13.38-10.11,18.6-22.18,18.6c-12.72,0-21.31-5.55-27.08-10.77l6.09-8.16
		c4.13,3.7,11.2,9.13,21.1,9.13c6.31,0,11.2-2.61,11.2-7.72c0-5.22-5-6.42-12.4-7.07c-10.77-0.76-23.38-2.07-23.38-15.88
		c0-13.16,11.09-17.18,20.34-17.18c10.22,0,18.92,4.13,23.16,7.29L966.55,359.74z"/>
</g>
</svg>
