<?xml version="1.0" encoding="utf-8"?>
<!-- Generator: Adobe Illustrator 27.9.5, SVG Export Plug-In . SVG Version: 9.03 Build 54986)  -->
<svg version="1.1" id="Layer_1" xmlns="http://www.w3.org/2000/svg" xmlns:xlink="http://www.w3.org/1999/xlink" x="0px" y="0px"
	 viewBox="0 0 850.39 850.39" style="enable-background:new 0 0 850.39 850.39;" xml:space="preserve">
<style type="text/css">
	.st0{fill-rule:evenodd;clip-rule:evenodd;fill:#FFFFFF;}
</style>
<g>
	<path class="st0" d="M412.83,9.39h24.11c0.62,0,1.55,0.31,2.16,0.31c12.37,1.24,25.04,1.85,37.1,4.02
		c88.73,16.08,157.97,61.83,207.44,137.26c28.44,43.28,43.9,91.2,47.61,142.83c0.31,3.09,0.62,6.18,0.93,9.58v25.35
		c0,0.62-0.31,1.24-0.31,1.85c-0.62,15.46-2.78,30.91-5.26,46.06c-5.87,33.7-15.15,66.47-27.51,98.62
		c-17.31,44.21-39.57,86.25-64.92,126.13c-0.31,0.62-0.62,0.93-1.24,1.85c-1.55-2.47-2.78-4.64-4.02-6.8
		c-4.95-8.97-12.68-13.91-22.26-16.08c-1.55-0.31-2.16-0.93-2.78-2.16c-14.22-24.42-28.44-49.15-42.66-73.58
		c-0.31-0.62-0.62-1.24-0.93-1.85c49.77-38.02,81.31-87.18,91.2-149.01c9.89-61.83-3.4-119.02-39.57-170.03
		c-67.08-94.91-194.45-123.97-296.78-68.63c-101.4,55.03-146.54,178.07-104.18,285.65c21.33,53.79,57.5,94.6,109.13,120.88
		c67.39,34.01,135.72,33.7,204.35,3.09c0,0.31,0.31,0.31,0.31,0.62c14.53,24.73,29.06,49.77,43.28,74.5
		c0.31,0.62,0.31,1.85,0.31,2.78c-0.62,3.09-1.24,6.18-1.55,8.97c-0.62,8.04,2.16,15.46,6.18,22.57
		c17.93,30.91,36.17,61.83,54.1,92.74c0.31,0.62,0.62,1.24,0.93,1.85c-0.31,0-0.31,0.31-0.31,0.31
		c-17.31-15.15-34.32-30.3-51.63-45.75c-0.31,0.62-0.93,0.93-1.24,1.24c-16.08,19.17-32.15,38.33-48.85,57.19
		c-29.06,32.46-59.97,63.07-92.43,91.82c-2.78,2.47-5.56,4.95-8.35,7.42h-0.31c-0.62-0.62-0.93-1.24-1.55-1.55
		c-3.09-2.78-6.49-5.56-9.58-8.35c-53.48-47.61-102.02-99.55-145.92-156.12c-32.77-41.73-61.83-85.94-86.56-132.93
		c-25.97-49.46-46.06-101.09-56.26-156.43c-2.78-14.84-4.95-29.99-5.87-45.14c-0.31-3.4-0.62-6.8-0.93-10.2v-27.51
		c0.31-2.78,0.62-5.56,0.93-8.35c1.55-21.33,5.26-42.35,11.44-63.07C166.44,107.39,275.57,19.6,404.17,10.32
		C406.34,10.01,409.74,9.7,412.83,9.39"/>
	<path class="st0" d="M336.78,300.92c20.09-34.32,39.88-68.63,59.97-103.25c0.93,0.31,1.55,0.93,2.16,1.24
		c72.03,41.73,144.06,83.16,216.09,124.59c1.85,0.93,2.16,2.16,2.16,4.33c-2.78,39.26-15.77,74.81-39.57,106.35
		c-3.09,4.02-3.09,4.02-7.42,1.55c-26.9-15.46-53.79-30.91-80.69-46.37c-1.55-0.93-2.16-1.55-1.85-3.71
		c6.18-34.01-20.09-64.3-54.41-62.76c-12.06,0.62-22.88,4.95-32.15,12.98c-0.93,0.62-1.55,1.24-2.78,0.62
		c-20.09-11.75-40.5-23.5-60.59-34.93C337.4,301.54,337.09,301.23,336.78,300.92"/>
	<path class="st0" d="M555.66,458.89c-5.87,4.64-11.13,9.27-16.69,13.29c-29.68,21.95-63.07,34.32-99.85,37.41
		c-65.23,5.56-132.93-24.11-173.12-81.61c-1.24-1.85-1.24-3.09-0.31-4.95c18.86-32.15,37.41-64.3,55.96-96.14
		c0.31-0.62,0.93-1.24,1.24-2.16c20.71,12.06,41.43,23.8,62.14,35.86c-0.62,3.09-1.24,6.49-1.55,9.58
		c-2.47,22.26,9.27,43.59,29.37,53.48c20.09,9.58,43.9,5.87,59.97-9.89c0.93-0.93,1.85-1.55,3.4-0.62
		c25.97,15.15,51.63,29.99,77.6,44.83C554.42,457.97,554.73,458.28,555.66,458.89"/>
	<path class="st0" d="M616.25,293.19c-68.94-39.88-137.26-79.14-205.58-118.71c2.78-4.95,5.87-9.89,8.66-14.84
		c6.49-11.13,12.98-22.26,19.17-33.08c0.93-1.55,1.85-1.85,3.4-1.85c83.16,7.73,152.1,68.01,170.65,149.32
		C613.78,280.21,615.01,286.39,616.25,293.19"/>
	<path class="st0" d="M243.42,247.13c4.02-8.04,7.42-16.08,11.75-23.5c15.46-28.13,36.79-51.01,63.68-68.63
		c0.93-0.62,1.85-1.24,3.4-0.31c16.38,9.58,33.08,19.17,49.77,28.75c0.31,0.31,0.62,0.62,1.24,0.93
		c-20.09,34.32-39.88,68.63-59.97,103.25C290.1,274.02,267.22,261.04,243.42,247.13"/>
	<path class="st0" d="M235.69,274.02c21.33,12.37,42.35,24.42,63.68,36.79c-17,29.06-33.7,57.81-50.39,86.87
		c-5.56-7.42-14.84-41.43-17-60.59C229.51,316.07,231.36,295.36,235.69,274.02"/>
	<path class="st0" d="M463.53,376.04c0,15.15-12.37,27.51-27.51,27.51s-27.51-12.37-27.51-27.51s12.37-27.51,27.51-27.51
		C451.17,348.53,463.53,360.89,463.53,376.04"/>
	<path class="st0" d="M407.88,124.71c-7.11,12.06-13.91,23.8-21.02,35.86c-12.37-7.11-24.73-14.22-37.41-21.64
		C356.88,133.98,395.83,124.09,407.88,124.71"/>
	<path class="st0" d="M732.18,329.05c-0.31,3.09-0.62,6.18-0.93,9.58c-2.47,32.77-9.27,65.23-18.55,96.76
		c-14.84,49.46-36.79,95.84-62.76,140.35c-5.26,8.97-10.82,17.93-16.38,26.9c-0.31,0.31-0.31,0.31-0.62,0.93
		c-0.93-1.55-1.85-2.78-2.47-4.33c-5.26-10.2-13.29-16.69-24.73-18.86c-0.62,0-1.55-1.24-1.85-1.85
		c-11.13-19.17-22.26-38.33-33.39-57.5c-3.4-5.87-6.8-11.75-10.51-17.93c51.01-38.95,82.54-89.65,91.82-153.34
		c6.49-44.52,0.31-87.49-18.55-128.3C595.85,139.85,514.54,87.61,424.89,87.3V9.7h12.06c0.62,0,1.55,0.31,2.16,0.31
		c12.37,1.24,25.04,1.85,37.1,4.02c88.73,16.08,157.97,61.83,207.44,137.26c28.44,43.28,43.9,91.2,47.61,142.83
		c0.31,3.09,0.62,6.18,0.93,9.58V329.05z"/>
	<path class="st0" d="M424.89,547c34.62-0.31,67.39-7.73,98.93-22.57c3.71,6.18,7.42,12.37,10.82,18.55
		c10.82,18.55,21.64,37.41,32.77,55.96c0.62,1.24,0.93,2.16,0.31,3.71c-2.78,8.97-2.47,17.62,1.85,25.97
		c6.49,11.75,13.29,23.19,19.79,34.62c12.37,21.02,24.73,42.35,36.79,63.38c0.31,0.62,0.62,1.24,0.62,2.47
		c-17-15.15-34.32-30.3-51.63-45.75c-0.93,0.93-1.85,2.16-2.47,3.09c-39.88,49.77-83.16,95.84-130.46,138.5
		c-5.87,5.26-11.75,10.2-17.62,15.46V547H424.89z"/>
</g>
</svg>
