<?xml version="1.0" encoding="utf-8"?>
<!-- Generator: Adobe Illustrator 27.9.5, SVG Export Plug-In . SVG Version: 9.03 Build 54986)  -->
<svg version="1.1" id="Layer_1" xmlns="http://www.w3.org/2000/svg" xmlns:xlink="http://www.w3.org/1999/xlink" x="0px" y="0px"
	 viewBox="0 0 96.74 33.78" style="enable-background:new 0 0 96.74 33.78;" xml:space="preserve">
<style type="text/css">
	.st0{fill-rule:evenodd;clip-rule:evenodd;fill:#618197;}
	.st1{fill-rule:evenodd;clip-rule:evenodd;fill:#B0BD45;}
	.st2{fill-rule:evenodd;clip-rule:evenodd;fill:#00B1DE;}
	.st3{fill-rule:evenodd;clip-rule:evenodd;fill:#F6B821;}
	.st4{fill-rule:evenodd;clip-rule:evenodd;fill:#E33561;}
	.st5{fill-rule:evenodd;clip-rule:evenodd;fill:#557486;}
	.st6{fill-rule:evenodd;clip-rule:evenodd;fill:#557388;}
	.st7{fill:#557388;}
	.st8{fill:#00B1DE;}
</style>
<g>
	<path class="st0" d="M15.25,3.44h0.78c0.02,0,0.05,0.01,0.07,0.01c0.4,0.04,0.81,0.06,1.2,0.13c2.87,0.52,5.11,2,6.71,4.44
		c0.92,1.4,1.42,2.95,1.54,4.62c0.01,0.1,0.02,0.2,0.03,0.31v0.82c0,0.02-0.01,0.04-0.01,0.06c-0.02,0.5-0.09,1-0.17,1.49
		c-0.19,1.09-0.49,2.15-0.89,3.19c-0.56,1.43-1.28,2.79-2.1,4.08c-0.01,0.02-0.02,0.03-0.04,0.06c-0.05-0.08-0.09-0.15-0.13-0.22
		c-0.16-0.29-0.41-0.45-0.72-0.52c-0.05-0.01-0.07-0.03-0.09-0.07c-0.46-0.79-0.92-1.59-1.38-2.38c-0.01-0.02-0.02-0.04-0.03-0.06
		c1.61-1.23,2.63-2.82,2.95-4.82c0.32-2-0.11-3.85-1.28-5.5c-2.17-3.07-6.29-4.01-9.6-2.22c-3.28,1.78-4.74,5.76-3.37,9.24
		c0.69,1.74,1.86,3.06,3.53,3.91c2.18,1.1,4.39,1.09,6.61,0.1c0,0.01,0.01,0.01,0.01,0.02c0.47,0.8,0.94,1.61,1.4,2.41
		c0.01,0.02,0.01,0.06,0.01,0.09c-0.02,0.1-0.04,0.2-0.05,0.29c-0.02,0.26,0.07,0.5,0.2,0.73c0.58,1,1.17,2,1.75,3
		c0.01,0.02,0.02,0.04,0.03,0.06c-0.01,0-0.01,0.01-0.01,0.01c-0.56-0.49-1.11-0.98-1.67-1.48c-0.01,0.02-0.03,0.03-0.04,0.04
		c-0.52,0.62-1.04,1.24-1.58,1.85c-0.94,1.05-1.94,2.04-2.99,2.97c-0.09,0.08-0.18,0.16-0.27,0.24h-0.01
		c-0.02-0.02-0.03-0.04-0.05-0.05c-0.1-0.09-0.21-0.18-0.31-0.27c-1.73-1.54-3.3-3.22-4.72-5.05c-1.06-1.35-2-2.78-2.8-4.3
		c-0.84-1.6-1.49-3.27-1.82-5.06c-0.09-0.48-0.16-0.97-0.19-1.46c-0.01-0.11-0.02-0.22-0.03-0.33v-0.89
		c0.01-0.09,0.02-0.18,0.03-0.27c0.05-0.69,0.17-1.37,0.37-2.04c1.16-4.01,4.69-6.85,8.85-7.15C15.04,3.46,15.15,3.45,15.25,3.44"/>
	<path class="st1" d="M12.79,12.87c0.65-1.11,1.29-2.22,1.94-3.34c0.03,0.01,0.05,0.03,0.07,0.04c2.33,1.35,4.66,2.69,6.99,4.03
		c0.06,0.03,0.07,0.07,0.07,0.14c-0.09,1.27-0.51,2.42-1.28,3.44c-0.1,0.13-0.1,0.13-0.24,0.05c-0.87-0.5-1.74-1-2.61-1.5
		c-0.05-0.03-0.07-0.05-0.06-0.12c0.2-1.1-0.65-2.08-1.76-2.03c-0.39,0.02-0.74,0.16-1.04,0.42c-0.03,0.02-0.05,0.04-0.09,0.02
		c-0.65-0.38-1.31-0.76-1.96-1.13C12.81,12.89,12.8,12.88,12.79,12.87"/>
	<path class="st2" d="M19.87,17.98c-0.19,0.15-0.36,0.3-0.54,0.43c-0.96,0.71-2.04,1.11-3.23,1.21c-2.11,0.18-4.3-0.78-5.6-2.64
		c-0.04-0.06-0.04-0.1-0.01-0.16c0.61-1.04,1.21-2.08,1.81-3.11c0.01-0.02,0.03-0.04,0.04-0.07c0.67,0.39,1.34,0.77,2.01,1.16
		c-0.02,0.1-0.04,0.21-0.05,0.31c-0.08,0.72,0.3,1.41,0.95,1.73c0.65,0.31,1.42,0.19,1.94-0.32c0.03-0.03,0.06-0.05,0.11-0.02
		c0.84,0.49,1.67,0.97,2.51,1.45C19.83,17.95,19.84,17.96,19.87,17.98"/>
	<path class="st3" d="M21.83,12.62c-2.23-1.29-4.44-2.56-6.65-3.84c0.09-0.16,0.19-0.32,0.28-0.48c0.21-0.36,0.42-0.72,0.62-1.07
		c0.03-0.05,0.06-0.06,0.11-0.06c2.69,0.25,4.92,2.2,5.52,4.83C21.75,12.2,21.79,12.4,21.83,12.62"/>
	<path class="st2" d="M9.77,11.13c0.13-0.26,0.24-0.52,0.38-0.76c0.5-0.91,1.19-1.65,2.06-2.22c0.03-0.02,0.06-0.04,0.11-0.01
		c0.53,0.31,1.07,0.62,1.61,0.93c0.01,0.01,0.02,0.02,0.04,0.03c-0.65,1.11-1.29,2.22-1.94,3.34C11.28,12,10.54,11.58,9.77,11.13"/>
	<path class="st3" d="M9.52,12c0.69,0.4,1.37,0.79,2.06,1.19c-0.55,0.94-1.09,1.87-1.63,2.81c-0.18-0.24-0.48-1.34-0.55-1.96
		C9.32,13.36,9.38,12.69,9.52,12"/>
	<path class="st4" d="M16.89,15.3c0,0.49-0.4,0.89-0.89,0.89c-0.49,0-0.89-0.4-0.89-0.89c0-0.49,0.4-0.89,0.89-0.89
		C16.49,14.41,16.89,14.81,16.89,15.3"/>
	<path class="st1" d="M15.09,7.17c-0.23,0.39-0.45,0.77-0.68,1.16c-0.4-0.23-0.8-0.46-1.21-0.7C13.44,7.47,14.7,7.15,15.09,7.17"/>
	<path class="st5" d="M25.58,13.78c-0.01,0.1-0.02,0.2-0.03,0.31c-0.08,1.06-0.3,2.11-0.6,3.13c-0.48,1.6-1.19,3.1-2.03,4.54
		c-0.17,0.29-0.35,0.58-0.53,0.87c-0.01,0.01-0.01,0.01-0.02,0.03c-0.03-0.05-0.06-0.09-0.08-0.14c-0.17-0.33-0.43-0.54-0.8-0.61
		c-0.02,0-0.05-0.04-0.06-0.06c-0.36-0.62-0.72-1.24-1.08-1.86c-0.11-0.19-0.22-0.38-0.34-0.58c1.65-1.26,2.67-2.9,2.97-4.96
		c0.21-1.44,0.01-2.83-0.6-4.15c-1.21-2.64-3.84-4.33-6.74-4.34V3.45h0.39c0.02,0,0.05,0.01,0.07,0.01c0.4,0.04,0.81,0.06,1.2,0.13
		c2.87,0.52,5.11,2,6.71,4.44c0.92,1.4,1.42,2.95,1.54,4.62c0.01,0.1,0.02,0.2,0.03,0.31V13.78z"/>
	<path class="st6" d="M15.64,20.83c1.12-0.01,2.18-0.25,3.2-0.73c0.12,0.2,0.24,0.4,0.35,0.6c0.35,0.6,0.7,1.21,1.06,1.81
		c0.02,0.04,0.03,0.07,0.01,0.12c-0.09,0.29-0.08,0.57,0.06,0.84c0.21,0.38,0.43,0.75,0.64,1.12c0.4,0.68,0.8,1.37,1.19,2.05
		c0.01,0.02,0.02,0.04,0.02,0.08c-0.55-0.49-1.11-0.98-1.67-1.48c-0.03,0.03-0.06,0.07-0.08,0.1c-1.29,1.61-2.69,3.1-4.22,4.48
		c-0.19,0.17-0.38,0.33-0.57,0.5V20.83z"/>
	<path class="st7" d="M36.66,13c0.55,0,1-0.22,1.35-0.65l0.72,0.74c-0.57,0.64-1.24,0.96-2.01,0.96c-0.77,0-1.41-0.24-1.91-0.73
		c-0.5-0.49-0.75-1.1-0.75-1.84s0.25-1.36,0.76-1.86c0.51-0.5,1.13-0.74,1.87-0.74c0.82,0,1.51,0.31,2.06,0.94l-0.69,0.79
		c-0.35-0.44-0.79-0.66-1.32-0.66c-0.42,0-0.78,0.14-1.08,0.41c-0.3,0.27-0.45,0.65-0.45,1.11c0,0.47,0.14,0.84,0.42,1.12
		C35.91,12.86,36.26,13,36.66,13"/>
	<path class="st7" d="M48.44,13.99l-0.47-1.08h-2.1l-0.47,1.08h-1.19l2.16-5.01h1.08l2.16,5.01H48.44z M46.93,10.47l-0.63,1.46h1.25
		L46.93,10.47z"/>
	<path class="st7" d="M56.7,12.69c0.19,0.23,0.44,0.35,0.75,0.35c0.32,0,0.56-0.12,0.75-0.35c0.18-0.23,0.28-0.55,0.28-0.95V8.98
		h1.12v2.8c0,0.73-0.2,1.28-0.6,1.67c-0.4,0.39-0.92,0.58-1.54,0.58c-0.63,0-1.14-0.2-1.54-0.59c-0.4-0.39-0.61-0.95-0.61-1.67v-2.8
		h1.12v2.77C56.42,12.14,56.52,12.46,56.7,12.69"/>
	<path class="st7" d="M69.31,11.43h1.12v1.78c-0.5,0.55-1.18,0.83-2.06,0.83c-0.74,0-1.35-0.24-1.85-0.73
		c-0.5-0.49-0.75-1.1-0.75-1.85s0.25-1.36,0.76-1.86c0.51-0.5,1.12-0.75,1.84-0.75c0.72,0,1.34,0.24,1.88,0.71l-0.58,0.84
		c-0.22-0.2-0.43-0.33-0.62-0.4c-0.19-0.07-0.39-0.11-0.61-0.11c-0.43,0-0.78,0.15-1.08,0.43c-0.29,0.29-0.44,0.67-0.44,1.14
		c0,0.47,0.14,0.85,0.42,1.14c0.28,0.28,0.61,0.43,1,0.43c0.39,0,0.71-0.07,0.97-0.22V11.43z"/>
	<polygon class="st7" points="79.85,8.98 80.97,8.98 80.97,13.99 79.85,13.99 79.85,12.01 77.86,12.01 77.86,13.99 76.74,13.99 
		76.74,8.98 77.86,8.98 77.86,11.07 79.85,11.07 	"/>
	<polygon class="st7" points="89.62,9.94 89.62,13.99 88.51,13.99 88.51,9.94 87.09,9.94 87.09,8.98 91.04,8.98 91.04,9.94 	"/>
	<polygon class="st8" points="34.26,19.77 38.52,19.77 38.52,20.72 36.89,20.72 36.89,24.76 35.9,24.76 35.9,20.72 34.26,20.72 	"/>
	<rect x="43.57" y="19.77" class="st8" width="0.99" height="4.99"/>
	<path class="st8" d="M54.56,23.89c-0.52,0.53-1.31,1.02-2.3,1.02c-1.5,0-2.49-1.18-2.49-2.65c0-1.44,1-2.65,2.46-2.65
		c0.83,0,1.65,0.36,2.19,0.87l-0.62,0.72c-0.42-0.4-1-0.64-1.48-0.64c-0.92,0-1.5,0.77-1.5,1.71c0,0.94,0.6,1.7,1.54,1.7
		c0.62,0,1.19-0.36,1.59-0.79L54.56,23.89z"/>
	<polygon class="st8" points="60.61,21.94 62.68,19.77 63.93,19.77 62.04,21.72 64.27,24.76 63.01,24.76 61.34,22.44 60.61,23.19 
		60.61,24.76 59.61,24.76 59.61,19.77 60.61,19.77 	"/>
	<polygon class="st8" points="71.78,22.63 70.11,22.63 70.11,23.82 73.05,23.82 73.05,24.76 69.12,24.76 69.12,19.77 72.89,19.77 
		72.89,20.72 70.11,20.72 70.11,21.69 71.78,21.69 	"/>
	<polygon class="st8" points="77.67,19.77 81.93,19.77 81.93,20.72 80.3,20.72 80.3,24.76 79.31,24.76 79.31,20.72 77.67,20.72 	"/>
	<path class="st8" d="M90.18,21.05c-0.27-0.22-0.84-0.53-1.59-0.53c-0.45,0-0.85,0.18-0.85,0.61c0,0.44,0.6,0.47,1.19,0.53
		c0.82,0.06,2.11,0.17,2.11,1.54c0,1.23-0.93,1.71-2.04,1.71c-1.17,0-1.96-0.51-2.49-0.99l0.56-0.75c0.38,0.34,1.03,0.84,1.94,0.84
		c0.58,0,1.03-0.24,1.03-0.71c0-0.48-0.46-0.59-1.14-0.65c-0.99-0.07-2.15-0.19-2.15-1.46c0-1.21,1.02-1.58,1.87-1.58
		c0.94,0,1.74,0.38,2.13,0.67L90.18,21.05z"/>
</g>
</svg>
